# Blender 4.3.0
# www.blender.org
mtllib tap note.mtl
o tap_n_(3)
v -25.327810 2.202593 -8.952484
v -25.327816 2.202591 8.952484
v -22.997028 1.612314 8.952484
v -22.997023 1.612316 -8.952484
v -22.997023 1.612316 -8.952484
v -22.997028 1.612314 8.952484
v -20.649298 1.077949 8.952484
v -20.649292 1.077951 -8.952484
v -20.649292 1.077951 -8.952484
v -20.649298 1.077949 8.952484
v -18.285574 0.600038 8.952484
v -18.285568 0.600040 -8.952484
v -18.285568 0.600040 -8.952484
v -18.285574 0.600038 8.952484
v -15.906824 0.179138 8.952484
v -15.906819 0.179140 -8.952484
v -15.906819 0.179140 -8.952484
v -15.906824 0.179138 8.952484
v -13.514000 -0.184202 8.952484
v -13.513994 -0.184200 -8.952484
v -13.513994 -0.184200 -8.952484
v -13.514000 -0.184202 8.952484
v -11.108064 -0.489427 8.952484
v -11.108059 -0.489424 -8.952484
v -11.108059 -0.489424 -8.952484
v -11.108064 -0.489427 8.952484
v -8.689975 -0.735978 8.952484
v -8.689969 -0.735976 -8.952484
v -8.689969 -0.735976 -8.952484
v -8.689975 -0.735978 8.952484
v -6.260684 -0.923307 8.952484
v -6.260684 -0.923306 -8.952484
v -6.260684 -0.923306 -8.952484
v -6.260684 -0.923307 8.952484
v -3.821160 -1.050858 8.952484
v -3.821160 -1.050858 -8.952484
v -3.821160 -1.050858 -8.952484
v -3.821160 -1.050858 8.952484
v -1.372359 -1.118083 8.952484
v -1.372353 -1.118081 -8.952484
v -1.372353 -1.118081 -8.952484
v -1.372359 -1.118083 8.952484
v 1.084770 -1.124422 8.952484
v 1.084773 -1.124421 -8.952484
v 1.084773 -1.124421 -8.952484
v 1.084770 -1.124422 8.952484
v 3.549261 -1.069328 8.952484
v 3.549264 -1.069327 -8.952484
v 3.549264 -1.069327 -8.952484
v 3.549261 -1.069328 8.952484
v 6.020159 -0.952244 8.952484
v 6.020160 -0.952235 -8.952484
v 6.020160 -0.952235 -8.952484
v 6.020159 -0.952244 8.952484
v 8.496503 -0.772613 8.952484
v 8.496506 -0.772611 -8.952484
v 8.496506 -0.772611 -8.952484
v 8.496503 -0.772613 8.952484
v 10.977336 -0.529886 8.952484
v 10.977339 -0.529884 -8.952484
v 10.977339 -0.529884 -8.952484
v 10.977336 -0.529886 8.952484
v 13.461701 -0.223514 8.952484
v 13.461702 -0.223506 -8.952484
v 13.461702 -0.223506 -8.952484
v 13.461701 -0.223514 8.952484
v 15.948637 0.147066 8.952484
v 15.948640 0.147067 -8.952484
v 15.948640 0.147067 -8.952484
v 15.948637 0.147066 8.952484
v 18.437189 0.582397 8.952484
v 18.437193 0.582398 -8.952484
v 18.437193 0.582398 -8.952484
v 18.437189 0.582397 8.952484
v 20.926397 1.083036 8.952484
v 20.926401 1.083037 -8.952484
v 20.926401 1.083037 -8.952484
v 20.926397 1.083036 8.952484
v 23.415310 1.649531 8.952484
v 23.415310 1.649532 -8.952484
v 23.415310 1.649532 -8.952484
v 23.415310 1.649531 8.952484
v 25.903009 2.282493 8.952484
v 25.903009 2.282494 -8.952484
vn 0.2337 0.9723 -0.0000
vn 0.2455 0.9694 -0.0000
vn 0.2101 0.9777 -0.0000
vn 0.1862 0.9825 -0.0000
vn 0.2100 0.9777 -0.0000
vn 0.1622 0.9868 -0.0000
vn 0.1380 0.9904 -0.0000
vn 0.1137 0.9935 -0.0000
vn 0.0892 0.9960 -0.0000
vn 0.1136 0.9935 -0.0000
vn 0.0645 0.9979 -0.0000
vn 0.0398 0.9992 -0.0000
vn 0.0646 0.9979 -0.0000
vn 0.0150 0.9999 -0.0000
vn 0.0399 0.9992 -0.0000
vn -0.0099 1.0000 -0.0000
vn -0.0349 0.9994 -0.0000
vn -0.0598 0.9982 -0.0000
vn -0.0348 0.9994 -0.0000
vn -0.0849 0.9964 -0.0000
vn -0.0599 0.9982 -0.0000
vn -0.1099 0.9939 -0.0000
vn -0.1349 0.9909 -0.0000
vn -0.1598 0.9871 -0.0000
vn -0.1848 0.9828 -0.0000
vn -0.1599 0.9871 -0.0000
vn -0.2096 0.9778 -0.0000
vn -0.2343 0.9722 -0.0000
vn -0.2466 0.9691 -0.0000
vt 0.921875 0.000000
vt 0.917969 1.000000
vt 0.917969 0.000000
vt 0.921875 1.000000
vt 0.925781 0.000000
vt 0.925781 1.000000
vt 0.929688 0.000000
vt 0.929688 1.000000
vt 0.933594 0.000000
vt 0.933594 1.000000
vt 0.937500 0.000000
vt 0.937500 1.000000
vt 0.941406 0.000000
vt 0.941406 1.000000
vt 0.945312 0.000000
vt 0.945312 1.000000
vt 0.949219 0.000000
vt 0.949219 1.000000
vt 0.953125 0.000000
vt 0.953125 1.000000
vt 0.957031 0.000000
vt 0.957031 1.000000
vt 0.960938 0.000000
vt 0.960938 1.000000
vt 0.964844 0.000000
vt 0.964844 1.000000
vt 0.968750 0.000000
vt 0.968750 1.000000
vt 0.972656 0.000000
vt 0.972656 1.000000
vt 0.976562 0.000000
vt 0.976562 1.000000
vt 0.980469 0.000000
vt 0.980469 1.000000
vt 0.984375 0.000000
vt 0.984375 1.000000
vt 0.988281 0.000000
vt 0.988281 1.000000
vt 0.992188 0.000000
vt 0.992188 1.000000
vt 0.996094 0.000000
vt 0.996094 1.000000
vt 1.000000 0.000000
vt 1.000000 1.000000
s 1
f 3/1/1 1/2/2 2/3/2
f 1/2/2 3/1/1 4/4/1
f 7/5/3 5/4/1 6/1/1
f 5/4/1 7/5/3 8/6/3
f 11/7/4 9/6/5 10/5/5
f 9/6/5 11/7/4 12/8/4
f 15/9/6 13/8/4 14/7/4
f 13/8/4 15/9/6 16/10/6
f 19/11/7 17/10/6 18/9/6
f 17/10/6 19/11/7 20/12/7
f 23/13/8 21/12/7 22/11/7
f 21/12/7 23/13/8 24/14/8
f 27/15/9 25/14/10 26/13/10
f 25/14/10 27/15/9 28/16/9
f 31/17/11 29/16/9 30/15/9
f 29/16/9 31/17/11 32/18/11
f 35/19/12 33/18/13 34/17/13
f 33/18/13 35/19/12 36/20/12
f 39/21/14 37/20/12 38/19/15
f 37/20/12 39/21/14 40/22/14
f 43/23/16 41/22/14 42/21/14
f 41/22/14 43/23/16 44/24/16
f 47/25/17 45/24/16 46/23/16
f 45/24/16 47/25/17 48/26/17
f 51/27/18 49/26/19 50/25/19
f 49/26/19 51/27/18 52/28/18
f 55/29/20 53/28/21 54/27/21
f 53/28/21 55/29/20 56/30/20
f 59/31/22 57/30/20 58/29/20
f 57/30/20 59/31/22 60/32/22
f 63/33/23 61/32/22 62/31/22
f 61/32/22 63/33/23 64/34/23
f 67/35/24 65/34/23 66/33/23
f 65/34/23 67/35/24 68/36/24
f 71/37/25 69/36/26 70/35/26
f 69/36/26 71/37/25 72/38/25
f 75/39/27 73/38/25 74/37/25
f 73/38/25 75/39/27 76/40/27
f 79/41/28 77/40/27 78/39/27
f 77/40/27 79/41/28 80/42/28
f 83/43/29 81/42/28 82/41/28
f 81/42/28 83/43/29 84/44/29
