# 
# Wavefront OBJ file
# Created with Autodesk FBX SDK
# 
g Normal_1_Lane
v -49.505853 -12.243974 -418.952478
v -49.505859 -12.243976 -401.047516
v -47.407265 -13.417389 -401.047516
v -47.407259 -13.417387 -418.952478
v -47.407259 -13.417387 -418.952478
v -47.407265 -13.417389 -401.047516
v -45.277834 -14.541188 -401.047515
v -45.277829 -14.541187 -418.952479
v -45.277829 -14.541187 -418.952479
v -45.277834 -14.541188 -401.047515
v -43.118347 -15.614591 -401.047517
v -43.118341 -15.614589 -418.952477
v -43.118341 -15.614589 -418.952477
v -43.118347 -15.614591 -401.047517
v -40.929587 -16.636815 -401.047516
v -40.929582 -16.636813 -418.952479
v -40.929582 -16.636813 -418.952479
v -40.929587 -16.636815 -401.047516
v -38.712336 -17.607083 -401.047515
v -38.712331 -17.607081 -418.952479
v -38.712331 -17.607081 -418.952479
v -38.712336 -17.607083 -401.047515
v -36.467379 -18.524606 -401.047513
v -36.467373 -18.524605 -418.952482
v -36.467373 -18.524605 -418.952482
v -36.467379 -18.524606 -401.047513
v -34.195496 -19.388603 -401.047515
v -34.195490 -19.388601 -418.952480
v -34.195490 -19.388601 -418.952480
v -34.195496 -19.388603 -401.047515
v -31.897465 -20.198296 -401.047515
v -31.897465 -20.198294 -418.952480
v -31.897465 -20.198294 -418.952480
v -31.897465 -20.198296 -401.047515
v -29.574079 -20.952897 -401.047516
v -29.574079 -20.952895 -418.952479
v -29.574079 -20.952895 -418.952479
v -29.574079 -20.952897 -401.047516
v -27.226117 -21.651629 -401.047516
v -27.226112 -21.651627 -418.952479
v -27.226112 -21.651627 -418.952479
v -27.226117 -21.651629 -401.047516
v -24.854354 -22.293703 -401.047516
v -24.854351 -22.293702 -418.952480
v -24.854351 -22.293702 -418.952480
v -24.854354 -22.293703 -401.047516
v -22.459579 -22.878343 -401.047516
v -22.459576 -22.878342 -418.952480
v -22.459576 -22.878342 -418.952480
v -22.459579 -22.878343 -401.047516
v -20.042571 -23.404761 -401.047515
v -20.042568 -23.404760 -418.952481
v -20.042568 -23.404760 -418.952481
v -20.042571 -23.404761 -401.047515
v -17.604115 -23.872179 -401.047517
v -17.604112 -23.872178 -418.952478
v -17.604112 -23.872178 -418.952478
v -17.604115 -23.872179 -401.047517
v -15.144992 -24.279809 -401.047516
v -15.144989 -24.279808 -418.952480
v -15.144989 -24.279808 -418.952480
v -15.144992 -24.279809 -401.047516
v -12.665985 -24.626875 -401.047517
v -12.665982 -24.626873 -418.952478
v -12.665982 -24.626873 -418.952478
v -12.665985 -24.626875 -401.047517
v -10.167876 -24.912593 -401.047517
v -10.167873 -24.912592 -418.952479
v -10.167873 -24.912592 -418.952479
v -10.167876 -24.912593 -401.047517
v -7.651447 -25.136181 -401.047515
v -7.651444 -25.136180 -418.952481
v -7.651444 -25.136180 -418.952481
v -7.651447 -25.136181 -401.047515
v -5.117480 -25.296857 -401.047515
v -5.117477 -25.296856 -418.952481
v -5.117477 -25.296856 -418.952481
v -5.117480 -25.296857 -401.047515
v -2.566757 -25.393838 -401.047517
v -2.566756 -25.393836 -418.952479
v -2.566756 -25.393836 -418.952479
v -2.566757 -25.393838 -401.047517
v -0.000000 -25.426311 -401.047517
v 0.000000 -25.426309 -418.952479
vt 0.917969 1.000000
vt 0.917969 0.000000
vt 0.921875 0.000000
vt 0.921875 1.000000
vt 0.925781 0.000000
vt 0.925781 1.000000
vt 0.929688 0.000000
vt 0.929688 1.000000
vt 0.933594 0.000000
vt 0.933594 1.000000
vt 0.937500 0.000000
vt 0.937500 1.000000
vt 0.941406 0.000000
vt 0.941406 1.000000
vt 0.945312 0.000000
vt 0.945312 1.000000
vt 0.949219 0.000000
vt 0.949219 1.000000
vt 0.953125 0.000000
vt 0.953125 1.000000
vt 0.957031 0.000000
vt 0.957031 1.000000
vt 0.960938 0.000000
vt 0.960938 1.000000
vt 0.964844 0.000000
vt 0.964844 1.000000
vt 0.968750 0.000000
vt 0.968750 1.000000
vt 0.972656 0.000000
vt 0.972656 1.000000
vt 0.976562 0.000000
vt 0.976562 1.000000
vt 0.980469 0.000000
vt 0.980469 1.000000
vt 0.984375 0.000000
vt 0.984375 1.000000
vt 0.988281 0.000000
vt 0.988281 1.000000
vt 0.992188 0.000000
vt 0.992188 1.000000
vt 0.996094 0.000000
vt 0.996094 1.000000
vt 1.000000 0.000000
vt 1.000000 1.000000
vn 0.488033 0.872825 0.000000
vn 0.488033 0.872825 0.000000
vn 0.477420 0.878675 0.000000
vn 0.477420 0.878675 0.000000
vn 0.477420 0.878675 0.000000
vn 0.477420 0.878675 0.000000
vn 0.455957 0.890002 0.000000
vn 0.455957 0.890002 0.000000
vn 0.455957 0.890002 0.000000
vn 0.455957 0.890002 0.000000
vn 0.434166 0.900833 0.000000
vn 0.434166 0.900833 0.000000
vn 0.434166 0.900833 0.000000
vn 0.434166 0.900833 0.000000
vn 0.412058 0.911158 0.000000
vn 0.412058 0.911158 0.000000
vn 0.412058 0.911158 0.000000
vn 0.412058 0.911158 0.000000
vn 0.389640 0.920967 0.000000
vn 0.389640 0.920967 0.000000
vn 0.389640 0.920967 0.000000
vn 0.389640 0.920967 0.000000
vn 0.366922 0.930252 0.000000
vn 0.366922 0.930252 0.000000
vn 0.366922 0.930252 0.000000
vn 0.366922 0.930252 0.000000
vn 0.343917 0.939000 0.000000
vn 0.343917 0.939000 0.000000
vn 0.343917 0.939000 0.000000
vn 0.343917 0.939000 0.000000
vn 0.320634 0.947203 0.000000
vn 0.320634 0.947203 0.000000
vn 0.320634 0.947203 0.000000
vn 0.320634 0.947203 0.000000
vn 0.297087 0.954850 0.000000
vn 0.297087 0.954850 0.000000
vn 0.297087 0.954850 0.000000
vn 0.297087 0.954850 0.000000
vn 0.273290 0.961932 0.000000
vn 0.273290 0.961932 0.000000
vn 0.273290 0.961932 0.000000
vn 0.273290 0.961932 0.000000
vn 0.249258 0.968437 0.000000
vn 0.249258 0.968437 0.000000
vn 0.249258 0.968437 0.000000
vn 0.249258 0.968437 0.000000
vn 0.225005 0.974358 0.000000
vn 0.225005 0.974358 0.000000
vn 0.225005 0.974358 0.000000
vn 0.225005 0.974358 0.000000
vn 0.200549 0.979684 -0.000000
vn 0.200549 0.979684 -0.000000
vn 0.200549 0.979684 -0.000000
vn 0.200549 0.979684 -0.000000
vn 0.175909 0.984406 -0.000000
vn 0.175909 0.984406 -0.000000
vn 0.175909 0.984406 -0.000000
vn 0.175909 0.984406 -0.000000
vn 0.151102 0.988518 0.000000
vn 0.151102 0.988518 0.000000
vn 0.151102 0.988518 0.000000
vn 0.151102 0.988518 0.000000
vn 0.126151 0.992011 0.000000
vn 0.126151 0.992011 0.000000
vn 0.126151 0.992011 0.000000
vn 0.126151 0.992011 0.000000
vn 0.101076 0.994879 0.000000
vn 0.101076 0.994879 0.000000
vn 0.101076 0.994879 0.000000
vn 0.101076 0.994879 0.000000
vn 0.075898 0.997116 0.000000
vn 0.075898 0.997116 0.000000
vn 0.075898 0.997116 0.000000
vn 0.075898 0.997116 0.000000
vn 0.050642 0.998717 0.000000
vn 0.050642 0.998717 0.000000
vn 0.050642 0.998717 0.000000
vn 0.050642 0.998717 0.000000
vn 0.025324 0.999679 0.000000
vn 0.025324 0.999679 0.000000
vn 0.025324 0.999679 0.000000
vn 0.025324 0.999679 0.000000
vn 0.012650 0.999920 0.000000
vn 0.012650 0.999920 0.000000
f 3/3/3 1/1/1 2/2/2
f 1/1/1 3/3/3 4/4/4
f 7/5/7 5/4/5 6/3/6
f 5/4/5 7/5/7 8/6/8
f 11/7/11 9/6/9 10/5/10
f 9/6/9 11/7/11 12/8/12
f 15/9/15 13/8/13 14/7/14
f 13/8/13 15/9/15 16/10/16
f 19/11/19 17/10/17 18/9/18
f 17/10/17 19/11/19 20/12/20
f 23/13/23 21/12/21 22/11/22
f 21/12/21 23/13/23 24/14/24
f 27/15/27 25/14/25 26/13/26
f 25/14/25 27/15/27 28/16/28
f 31/17/31 29/16/29 30/15/30
f 29/16/29 31/17/31 32/18/32
f 35/19/35 33/18/33 34/17/34
f 33/18/33 35/19/35 36/20/36
f 39/21/39 37/20/37 38/19/38
f 37/20/37 39/21/39 40/22/40
f 43/23/43 41/22/41 42/21/42
f 41/22/41 43/23/43 44/24/44
f 47/25/47 45/24/45 46/23/46
f 45/24/45 47/25/47 48/26/48
f 51/27/51 49/26/49 50/25/50
f 49/26/49 51/27/51 52/28/52
f 55/29/55 53/28/53 54/27/54
f 53/28/53 55/29/55 56/30/56
f 59/31/59 57/30/57 58/29/58
f 57/30/57 59/31/59 60/32/60
f 63/33/63 61/32/61 62/31/62
f 61/32/61 63/33/63 64/34/64
f 67/35/67 65/34/65 66/33/66
f 65/34/65 67/35/67 68/36/68
f 71/37/71 69/36/69 70/35/70
f 69/36/69 71/37/71 72/38/72
f 75/39/75 73/38/73 74/37/74
f 73/38/73 75/39/75 76/40/76
f 79/41/79 77/40/77 78/39/78
f 77/40/77 79/41/79 80/42/80
f 83/43/83 81/42/81 82/41/82
f 81/42/81 83/43/83 84/44/84
